<?xml version="1.0" standalone="no"?>
<!DOCTYPE svg PUBLIC "-//W3C//DTD SVG 20010904//EN"
 "http://www.w3.org/TR/2001/REC-SVG-20010904/DTD/svg10.dtd">
<svg version="1.0" xmlns="http://www.w3.org/2000/svg"
 width="700.000000pt" height="700.000000pt" viewBox="0 0 700.000000 700.000000"
 preserveAspectRatio="xMidYMid meet">
<metadata>
Created by potrace 1.11, written by Peter Selinger 2001-2013
</metadata>
<g transform="translate(0.000000,700.000000) scale(0.100000,-0.100000)"
fill="#000000" stroke="none">
<path d="M2105 4719 c-671 -656 -1221 -1195 -1223 -1198 -1 -3 541 -549 1205
-1213 l1208 -1206 1018 -4 1017 -3 -1202 1202 c-662 662 -1203 1207 -1203
1212 0 5 545 542 1210 1192 666 650 1212 1186 1213 1190 2 5 -356 9 -795 9
-439 0 -895 3 -1013 6 l-215 6 -1220 -1193z"/>
</g>
</svg>
