<?xml version="1.0" encoding="UTF-8"?>
<svg width="10px" height="10px" viewBox="0 0 10 10" version="1.1" xmlns="http://www.w3.org/2000/svg" xmlns:xlink="http://www.w3.org/1999/xlink">
    <!-- Generator: Sketch 54.1 (76490) - https://sketchapp.com -->
    <title>cancel</title>
    <desc>Created with Sketch.</desc>
    <g id="Page-1" stroke="none" stroke-width="1" fill="none" fill-rule="evenodd">
        <g id="Стартовая-2" transform="translate(-759.000000, -287.000000)" fill="#4B4C51" fill-rule="nonzero" stroke="#4B4C51" stroke-width="0.5">
            <g id="Group-34">
                <g id="Group-32" transform="translate(416.000000, 272.000000)">
                    <g id="cancel" transform="translate(344.000000, 16.000000)">
                        <path d="M4.54258957,3.99993608 L7.88762106,0.65495805 C8.03745965,0.505121854 8.03745965,0.262213344 7.88762106,0.112377147 C7.73778247,-0.0374590491 7.49487007,-0.0374590491 7.34503148,0.112377147 L4,3.45735517 L0.654968517,0.112888534 C0.505129926,-0.0369476628 0.262217534,-0.0369476628 0.112378943,0.112888534 C-0.0374596478,0.26272473 -0.0374596478,0.50563324 0.112378943,0.655469437 L3.45741043,4.00044746 L0.112890338,7.3449141 C-0.0369482533,7.4947503 -0.0369482533,7.73765881 0.112890338,7.88749501 C0.188065331,7.96215741 0.285741682,8 0.383929428,8 C0.482117173,8 0.580304919,7.9626688 0.654968517,7.88749501 L4,4.54251698 L7.34503148,7.88749501 C7.42020648,7.96215741 7.51788283,8 7.61607057,8 C7.71425832,8 7.81244606,7.9626688 7.88710966,7.88749501 C8.03694825,7.73765881 8.03694825,7.4947503 7.88710966,7.3449141 L4.54258957,3.99993608 Z" id="Path"></path>
                    </g>
                </g>
            </g>
        </g>
    </g>
</svg>