<?xml version="1.0" encoding="UTF-8"?>
<svg width="6px" height="12px" viewBox="0 0 6 12" version="1.1" xmlns="http://www.w3.org/2000/svg" xmlns:xlink="http://www.w3.org/1999/xlink">
    <!-- Generator: Sketch 54.1 (76490) - https://sketchapp.com -->
    <title>i</title>
    <desc>Created with Sketch.</desc>
    <g id="Page-1" stroke="none" stroke-width="1" fill="none" fill-rule="evenodd">
        <g id="ВСМК-UI" transform="translate(-677.000000, -2200.000000)" fill="#FFFFFF" fill-rule="nonzero">
            <g id="Group-12-Copy-4" transform="translate(670.000000, 2196.000000)">
                <g id="i-2" transform="translate(7.500000, 4.000000)">
                    <path d="M1.31687243,0.993690852 C1.31687243,0.72239612 1.41975206,0.488959968 1.6255144,0.293375394 C1.83127675,0.0977908202 2.0850465,0 2.38683128,0 C2.6817573,0 2.9338124,0.0962135489 3.14300412,0.288643533 C3.35219583,0.481073517 3.45679012,0.71608694 3.45679012,0.993690852 C3.45679012,1.26498558 3.35219583,1.49684446 3.14300412,1.68927445 C2.9338124,1.88170443 2.6817573,1.97791798 2.38683128,1.97791798 C2.0850465,1.97791798 1.83127675,1.88170443 1.6255144,1.68927445 C1.41975206,1.49684446 1.31687243,1.26498558 1.31687243,0.993690852 Z M-4.08562073e-12,11.075697 C0.7338857,11.0126052 1.19684403,10.8974644 1.38888889,10.7302711 C1.58093374,10.5630779 1.67695473,10.3458096 1.67695473,9.60763558 L1.67695473,5.51735016 C1.67695473,5.10725347 1.64609084,4.82334464 1.58436214,4.66561514 C1.48148097,4.40693877 1.09931868,4.19202474 0.0925925926,4.19202474 L0.0925925926,3.23659306 L3.43621399,3.23659306 L3.43621399,9.60763558 C3.43621399,10.3268821 3.53052032,10.5425731 3.7191358,10.7255393 C3.90775129,10.9085055 4.33470175,11.0252236 5,11.075697 L5,12 L-8.63309424e-12,12 L-4.08562073e-12,11.075697 Z" id="i"></path>
                </g>
            </g>
        </g>
    </g>
</svg>