<?xml version="1.0" encoding="UTF-8"?>
<svg width="16px" height="16px" viewBox="0 0 16 16" version="1.1" xmlns="http://www.w3.org/2000/svg" xmlns:xlink="http://www.w3.org/1999/xlink">
    <!-- Generator: Sketch 54.1 (76490) - https://sketchapp.com -->
    <title>Shape</title>
    <desc>Created with Sketch.</desc>
    <g id="Page-1" stroke="none" stroke-width="1" fill="none" fill-rule="evenodd">
        <g id="Стартовая-Copy-4" transform="translate(-92.000000, -2095.000000)" fill="#2B2A28">
            <g id="Group-20-Copy-2" transform="translate(52.000000, 1912.000000)">
                <g id="Group-13" transform="translate(40.000000, 178.000000)">
                    <path d="M16,21 L12,21 L12,20 L15,20 L15,17 L16,17 L16,21 Z M12,5 L16,5 L16,9 L15,9 L15,6 L12,6 L12,5 Z M0,5 L4,5 L4,6 L1,6 L1,9 L0,9 L0,5 Z M15,11 L16,11 L16,15 L15,15 L15,11 Z M6,6 L6,5 L10,5 L10,6 L6,6 Z M0,11 L10,11 L10,21 L0,21 L0,11 Z" id="Shape"></path>
                </g>
            </g>
        </g>
    </g>
</svg>