<svg width="19px" height="10px" viewBox="0 0 19 10" version="1.1" xmlns="http://www.w3.org/2000/svg" xmlns:xlink="http://www.w3.org/1999/xlink">
    <g stroke="none" stroke-width="1" fill="none" fill-rule="evenodd">
        <g transform="translate(-342.000000, -1107.000000)" fill="#555553" fill-rule="nonzero" stroke="#555553" stroke-width="0.3">
            <g transform="translate(343.000000, 1108.000000)">
                <g>
                    <path d="M9.68299122,3.50198744 C9.9605961,3.50198744 10.1858227,3.72826161 10.1832038,4.00452659 C10.1832038,5.70947615 8.8004172,7.09869431 7.10336092,7.09869431 L3.07985871,7.09869431 C2.23133058,7.09869431 1.46136986,6.75138977 0.903541176,6.19096653 C0.345712493,5.6305433 1.58445008e-05,4.85700137 1.58445008e-05,4.00452659 L1.58445008e-05,3.09416772 C-0.0026030695,2.26537279 0.319523353,1.48919977 0.900922262,0.90509668 C1.48232117,0.32099359 2.25751972,-8.46041583e-15 3.07985871,0 L7.10336092,0 C7.38096581,-8.46041583e-15 7.6035735,0.223643075 7.6035735,0.502539145 C7.6035735,0.781435215 7.38096581,1.00507829 7.10336092,1.00507829 L3.07985871,1.00507829 C1.93277438,1.00507829 1.00044099,1.94174811 1.00044099,3.09416772 L1.00044099,4.00452659 C1.00044099,5.1569462 1.93277438,6.09361602 3.07985871,6.09361602 L7.10336092,6.09361602 C8.25044526,6.09361602 9.18277864,5.1569462 9.18277864,4.00452659 C9.18277864,3.72563052 9.40538633,3.50198744 9.68299122,3.50198744 Z M16.9644224,4.87541903 C16.9644224,5.70158286 16.642296,6.47775589 16.0608971,7.06185898 C15.4794982,7.64596207 14.7042997,7.96695566 13.8819607,7.96695566 L9.85845846,7.96695566 C9.71965601,7.96958675 9.59394814,7.91170266 9.50490507,7.82224543 C9.41586199,7.7327882 9.3608648,7.60386455 9.3608648,7.46704761 C9.3608648,7.18815154 9.58347249,6.96450846 9.86107737,6.96450846 L13.8845796,6.96450846 C15.0316639,6.96450846 15.9639973,6.02783864 15.9639973,4.87541903 L15.9639973,3.96506016 C15.9639973,2.81264055 15.0316639,1.87597073 13.8845796,1.87597073 L9.86107737,1.87597073 C8.71399304,1.87597073 7.78165965,2.81264055 7.78165965,3.96506016 C7.78165965,4.24395623 7.55905196,4.46759931 7.28144708,4.46759931 C7.00384219,4.46759931 6.7812345,4.24395623 6.7812345,3.96506016 C6.7812345,2.2601106 8.1640211,0.870892445 9.86107737,0.870892445 L13.8845796,0.870892445 C15.5816359,0.870892445 16.9644224,2.2601106 16.9644224,3.96506016 L16.9644224,4.87541903 Z" id="Shape"></path>
                </g>
            </g>
        </g>
    </g>
</svg>
