<?xml version="1.0" encoding="UTF-8"?>
<svg width="16px" height="12px" viewBox="0 0 16 12" version="1.1" xmlns="http://www.w3.org/2000/svg" xmlns:xlink="http://www.w3.org/1999/xlink">
    <!-- Generator: Sketch 54.1 (76490) - https://sketchapp.com -->
    <title>mail-black-envelope-symbol 2</title>
    <desc>Created with Sketch.</desc>
    <g id="Page-1" stroke="none" stroke-width="1" fill="none" fill-rule="evenodd">
        <g id="Контакты" transform="translate(-52.000000, -365.000000)" fill="#2B2A28" fill-rule="nonzero">
            <g id="Group-4" transform="translate(52.000000, 358.000000)">
                <g id="mail-black-envelope-symbol-2" transform="translate(0.000000, 7.000000)">
                    <g id="mail-black-envelope-symbol">
                        <path d="M15.9740247,9.99143014 C15.9740247,10.3411397 15.8755226,10.665337 15.7177284,10.9505753 L10.6740741,5.31517808 L15.6630453,0.956252055 C15.8571193,1.2638137 15.9740247,1.62509589 15.9740247,2.01550685 L15.9740247,9.99143014 Z M7.98702881,6.3384 L14.9290206,0.272646575 C14.6441481,0.116909589 14.323358,0.0214027397 13.9773169,0.0214027397 L1.99674074,0.0214027397 C1.6502716,0.0214027397 1.32938272,0.116909589 1.04566255,0.272646575 L7.98702881,6.3384 Z M9.92240329,5.97143014 L8.31552263,7.37638356 C8.22153086,7.45814795 8.10449383,7.49898082 7.98702881,7.49898082 C7.86949794,7.49898082 7.75246091,7.45814795 7.65846914,7.37638356 L6.05122634,5.97136438 L0.943769547,11.6787945 C1.24990947,11.8705973 1.60869136,11.9855014 1.99670782,11.9855014 L13.9773169,11.9855014 C14.3652675,11.9855014 14.724214,11.8705973 15.0302551,11.6787945 L9.92240329,5.97143014 Z M0.311045267,0.956219178 C0.117004115,1.26378082 0,1.62506301 0,2.01550685 L0,9.99146301 C0,10.3411726 0.0980411523,10.6653699 0.256427984,10.9506082 L5.29948971,5.31422466 L0.311045267,0.956219178 Z" id="Shape"></path>
                    </g>
                </g>
            </g>
        </g>
    </g>
</svg>