<?xml version="1.0" encoding="UTF-8"?>
<svg width="14px" height="14px" viewBox="0 0 14 14" version="1.1" xmlns="http://www.w3.org/2000/svg" xmlns:xlink="http://www.w3.org/1999/xlink">
    <!-- Generator: Sketch 54.1 (76490) - https://sketchapp.com -->
    <title>Shape 2</title>
    <desc>Created with Sketch.</desc>
    <g id="Page-1" stroke="none" stroke-width="1" fill="none" fill-rule="evenodd">
        <g id="Контакты" transform="translate(-52.000000, -332.000000)" fill="#2B2A28" fill-rule="nonzero">
            <g id="Group-2" transform="translate(52.000000, 326.000000)">
                <g id="Shape-2" transform="translate(0.000000, 6.000000)">
                    <path d="M7.00002885,0 C3.13429649,0 0,3.13428357 0,7 C0,10.8656587 3.13429649,14 7.00002885,14 C10.8657612,14 14,10.8656299 14,7 C14.0000289,3.13428357 10.8657612,0 7.00002885,0 Z M10.6965067,10.2137746 L10.1360277,10.7743667 C10.0359638,10.8742859 9.74295666,10.936638 9.73355042,10.936638 C7.96044599,10.9521034 6.25321407,10.2556408 4.99883762,9.00115413 C3.7410276,7.74262796 3.04375425,6.02931502 3.06248016,4.25024525 C3.06248016,4.24943736 3.12665032,3.96482775 3.22662765,3.86580299 L3.78707776,3.30526862 C3.99216834,3.09922673 4.38613384,3.00611691 4.66211743,3.09844769 L4.78001278,3.13777483 C5.05518848,3.23001904 5.34409843,3.5342778 5.42012737,3.81458826 L5.70205478,4.84932772 C5.77808372,5.13044607 5.67553843,5.5303826 5.47050555,5.73547233 L5.09627584,6.10975821 C5.46369613,7.46996364 6.53095773,8.53742282 7.8913996,8.90573605 L8.26548505,8.53136361 C8.47152779,8.32532172 8.8713217,8.22286341 9.15183529,8.29877662 L10.1864347,8.58171274 C10.4668041,8.65875123 10.7710064,8.94584223 10.8632221,9.22093023 L10.9025494,9.34052744 C10.9939573,9.61573086 10.9015684,10.0096082 10.6965067,10.2137746 Z" id="Shape"></path>
                </g>
            </g>
        </g>
    </g>
</svg>