<?xml version="1.0" encoding="UTF-8"?>
<svg width="29px" height="48px" viewBox="0 0 29 48" version="1.1" xmlns="http://www.w3.org/2000/svg" xmlns:xlink="http://www.w3.org/1999/xlink">
    <!-- Generator: Sketch 54.1 (76490) - https://sketchapp.com -->
    <title>Group 27</title>
    <desc>Created with Sketch.</desc>
    <g id="Page-1" stroke="none" stroke-width="1" fill="none" fill-rule="evenodd">
        <g id="Стартовая-Copy-4" transform="translate(-841.000000, -2495.000000)">
            <g id="Group-29" transform="translate(52.000000, 2375.000000)">
                <g id="Group-2">
                    <g id="Group-27" transform="translate(789.000000, 120.000000)">
                        <g id="Group-26">
                            <path d="M11,48 L14.3559322,28.5714286 L29,14 C28.7853693,18.25 26.6951847,23.9166667 22.7294461,31 C18.7637075,38.0833333 14.8538921,43.75 11,48 Z" id="Path-8" fill="#C5141C"></path>
                            <path d="M14.5,29 C6.49187113,29 0,22.5081289 0,14.5 C0,6.49187113 6.49187113,0 14.5,0 C22.5081289,0 29,6.49187113 29,14.5 C29,22.5081289 22.5081289,29 14.5,29 Z M14.5,21.75 C18.5040644,21.75 21.75,18.5040644 21.75,14.5 C21.75,10.4959356 18.5040644,7.25 14.5,7.25 C10.4959356,7.25 7.25,10.4959356 7.25,14.5 C7.25,18.5040644 10.4959356,21.75 14.5,21.75 Z" id="Combined-Shape" fill="#E72424"></path>
                        </g>
                    </g>
                </g>
            </g>
        </g>
    </g>
</svg>